<svg version="1.1" xmlns="http://www.w3.org/2000/svg" style="display: block;" viewBox="0 0 2048 2048" width="1024" height="1024" preserveAspectRatio="none">
<defs>
	<linearGradient id="Gradient1" gradientUnits="userSpaceOnUse" x1="633.393" y1="551.243" x2="638.614" y2="551.675">
		<stop class="stop0" offset="0" stop-opacity="0" stop-color="rgb(0,1,0)"/>
		<stop class="stop1" offset="1" stop-opacity="0.0392157" stop-color="rgb(3,0,4)"/>
	</linearGradient>
</defs>
<path transform="translate(0,0)" fill="rgb(122,176,146)" d="M 731.168 244.367 C 780.339 239.269 802.597 260.93 819.306 303.955 C 825.831 297.312 832.812 291.134 840.2 285.466 C 856.698 273.003 879.317 263.024 900.55 266.119 C 918.367 268.716 913.01 278.928 917.584 285.12 C 922.148 283.993 929.531 273.941 934.262 271.321 C 984.183 243.677 1031.13 275.916 1045.89 325.499 C 1088.18 296.437 1154.76 269.95 1185.22 328.968 C 1197.49 352.726 1198.26 373.329 1198.03 399.365 C 1226.42 402.539 1226.95 393.719 1249.88 417.544 C 1258.89 408.132 1263.43 404.364 1274.32 397.188 C 1282.36 396.339 1292.25 397.321 1300.31 398.388 C 1323.77 401.49 1334.8 418.046 1347.73 436.16 C 1359.3 424.679 1359.33 413.601 1376.53 410.643 C 1378.29 410.34 1386.06 405.887 1388.18 404.674 C 1422.03 405.49 1453.24 409.356 1456.94 451.88 C 1458.65 471.509 1452.14 486.303 1446.11 504.662 C 1480.69 524.292 1497.03 547.939 1492.68 589.419 C 1491.33 602.284 1475.04 606.71 1465.33 612.695 C 1458.4 638.412 1461.83 691.176 1462.86 717.523 C 1465.77 791.951 1461.48 867.345 1465.08 941.557 C 1487.55 930.522 1513.52 931.738 1534.45 946.617 C 1557.01 964.262 1579.37 997.636 1584.29 1025.3 C 1595.19 1086.5 1552.81 1126.75 1510.42 1162.42 C 1493.25 1176.87 1480.75 1199.87 1457.66 1210.69 C 1456.55 1211.21 1452.26 1218.71 1451.13 1220.06 C 1414.17 1245.92 1368.88 1264.86 1326.3 1279.89 C 1307.95 1286.2 1290.68 1287.19 1274.43 1292.48 C 1257.7 1297.92 1257.88 1301.6 1238.85 1304.97 C 1227.5 1307.06 1202.84 1305.96 1189.27 1307.55 C 1155.07 1311.56 1122.53 1315.62 1087.99 1315.96 C 1058.61 1316.65 1029.7 1311.88 1000.54 1309.44 C 984.643 1308.11 968.005 1309.18 952.005 1308.43 C 936.244 1307.7 920.716 1306.25 905.007 1304.87 C 892.532 1303.78 879.84 1307.53 867.354 1306.46 C 862.97 1306.06 854.503 1301.15 848.851 1300.31 L 748.869 1285.69 C 740.932 1284.52 725.09 1286.79 720.915 1285.62 C 703.754 1280.34 689 1270.57 671.589 1265.18 C 664.399 1262.95 653.633 1265.96 650.609 1264.4 C 640.443 1259.15 632.462 1249.02 621.487 1243.78 C 611.678 1237.68 594.606 1237.04 585.294 1231.83 C 557.571 1216.32 528.755 1202.68 500.825 1187.54 C 489.806 1181.57 487.269 1175.6 479.193 1168.74 C 460.252 1152.63 446.823 1136.19 440.639 1111.58 C 434.388 1088.18 439.412 1049.41 451.59 1028.16 C 457.554 1017.75 463.13 1013.95 470.695 1006 C 489.201 986.55 509.724 979.004 535.702 972.52 C 537.229 941.114 532.119 903.026 531.219 871.247 C 530.801 856.515 531.848 841.499 532.031 826.707 C 532.194 801.873 532.141 777.039 531.874 752.206 C 531.658 730.571 531.285 708.939 530.754 687.309 C 530.319 672.261 529.09 650.627 530.124 635.851 C 531.221 620.19 538.246 609.243 540.339 590.728 C 516.401 573.268 494.825 549.706 504.265 517.1 C 509.33 499.605 520.439 490.023 535.959 481.671 C 527.403 456.417 497.296 435.398 470.558 437.03 C 468.037 437.184 465.785 440.453 464.218 442.272 L 463.266 443.392 C 454.173 442.784 455.753 424.683 460.978 420.291 C 468.83 418.626 478.588 423.544 486.256 425.554 C 510.701 431.964 530.366 444.562 544.623 465.697 C 556.544 453.277 564.962 452.378 581.638 454.897 C 593.188 456.641 600.462 458.464 610.816 463.733 C 633.492 441.655 656.579 415.564 679.603 393.242 C 701.66 371.856 726.843 351.839 742.981 324.823 C 748.577 315.455 748.281 300.001 744.682 290.843 C 736.51 270.047 724.624 272.732 707.174 267.631 C 705.168 266.743 704.233 263.319 703.978 261.435 C 702.15 247.904 722.589 245.465 731.168 244.367 z M 666.667 1131.83 C 667.009 1118.92 669.205 1060.88 676.803 1052.06 L 678.561 1051.39 C 683.901 1058.28 678.157 1085.15 677.442 1094.28 C 676.392 1107.69 675.794 1120.77 675.598 1134.23 C 679.694 1135.53 684.52 1137.2 688.602 1138.28 C 688.067 1124.32 689.649 1088.73 698.796 1077.54 L 700.162 1077.99 C 702.027 1084.14 701.084 1091.39 700.054 1097.66 C 697.784 1111.45 696.787 1123.85 697.023 1137.78 C 706.471 1141.92 716.658 1143.58 726.262 1146.95 C 762.603 1159.73 799.467 1162.31 837.187 1168.71 C 903.275 1179.93 970.579 1189.23 1037.29 1195.92 C 1054.03 1197.6 1073.53 1194.98 1090.41 1195.28 C 1107.67 1195.21 1118.05 1195.96 1135.22 1194.01 C 1145.77 1192.52 1190.69 1186.19 1198.46 1177.47 C 1201.9 1173.61 1201.65 1148.56 1198.47 1144.41 C 1192.48 1130.64 1179.67 1123.38 1172.37 1113.1 C 1165.07 1102.82 1156.87 1077.01 1152.01 1064.88 C 1138.96 1032.28 1147.19 973.737 1155.77 940.469 C 1165.79 901.652 1176.32 899.541 1170.26 854.408 C 1164.34 810.323 1141.2 777.104 1131.99 733.871 C 1129.21 720.823 1128.89 708.839 1128.69 695.548 C 1114.69 700.762 1102.74 705.272 1088.04 708.649 C 1081.77 710.09 1070.37 708.674 1067.56 710.284 C 1052.72 718.796 1056.24 725.818 1037.2 728.27 C 1012.98 731.391 992.344 713.785 971.648 729.776 C 954.243 743.224 942.309 774.914 914.671 764.162 C 895.103 756.55 884.135 726.083 870.328 721.342 C 865.006 719.515 836.207 713.272 829.187 712.06 C 803.654 707.65 771.985 699.2 746.444 697.265 C 703.789 694.032 655.487 695.708 615.081 678.036 C 600.914 671.839 576.489 655.873 564.406 645.903 C 560.489 642.67 551.814 630.54 548.156 628.371 C 536.474 659.333 540.951 723.458 541.024 757.999 C 541.102 795.021 540.913 832.848 541.056 869.954 C 541.101 881.85 543.204 900.637 543.92 913.246 C 544.885 931.487 545.356 949.751 545.334 968.017 C 545.447 980.994 547.738 1011.54 544.99 1023.44 C 540.625 1042.35 546.581 1053.77 554.615 1071.14 C 579.4 1120.84 618.693 1119.58 666.667 1131.83 z M 1288.25 691.587 L 1287.63 692.806 C 1282.45 703.08 1277.56 726.278 1267.93 728.296 C 1258.12 730.35 1236.64 727.49 1226.01 727.023 C 1226.28 771.848 1225.64 812.952 1230.41 857.617 C 1237.19 921.108 1249.99 981.656 1263.15 1044.07 C 1267.4 1065.41 1255.91 1096.27 1240.51 1111.61 C 1224.21 1126.9 1222.39 1128.74 1233.79 1151.38 C 1232.95 1158.94 1231.97 1166.49 1230.83 1174.02 C 1258.24 1178.64 1273.7 1169.58 1299.33 1161.55 C 1314.36 1156.84 1329.49 1152.79 1344.53 1148.2 C 1353.43 1145.45 1361.65 1140.82 1370.12 1137.27 C 1370.61 1100.12 1348.32 956.919 1360.1 934.942 L 1361.42 934.991 C 1363.85 939.008 1363.3 976.309 1363.37 983.881 C 1363.84 1034.1 1374.91 1085.02 1375.23 1134.92 L 1380.59 1132.72 C 1381.73 1122.32 1379.72 1103.74 1380.64 1095.11 C 1384.4 1059.77 1363.21 903.752 1378.07 880.956 C 1380.92 887.828 1379.42 950.315 1379.81 962.795 L 1386.15 1127.15 L 1396.17 1123.47 C 1400.09 1121.3 1402.64 1119.72 1406.34 1117.19 C 1404.52 1109.98 1404.73 1101.49 1405.23 1094.1 C 1401 1072.27 1402.03 1033.23 1402.05 1009.53 C 1402.05 1000.85 1400.11 952.415 1403.88 948.755 C 1413.68 950.706 1408.22 972.404 1407.06 980.309 C 1406.69 1012.74 1407.65 1044.4 1408.17 1076.82 C 1408.27 1083.02 1408.45 1092.67 1407.7 1098.7 C 1408.35 1104.76 1408.9 1110.2 1409.24 1116.29 C 1413.75 1113.9 1415.9 1112.89 1420.69 1111.16 C 1421.15 1095.43 1423.42 1069.53 1424.08 1053.92 C 1425.02 1032.13 1420.68 920.215 1432.09 907.449 L 1434.65 906.796 C 1439.17 913.748 1431.91 941.918 1431.7 951.595 C 1431.21 973.436 1431.13 995.365 1430.8 1017.22 C 1430.52 1040.74 1428.17 1075.48 1430.16 1098.12 C 1436.25 1089.79 1443.64 1074.15 1445.12 1063.84 C 1446.18 1056.5 1444.22 1045.18 1444.8 1036.72 C 1446.56 1011.39 1452.02 980.99 1451.69 955.821 C 1451.37 931.413 1449.47 908.333 1449.64 883.332 L 1450.84 670.018 C 1450.78 653.303 1451.31 635.92 1450.99 619.314 C 1420.73 637.569 1388.18 657.458 1356.01 672.038 C 1336.83 680.73 1303.5 681.768 1288.25 691.587 z M 946.924 563.633 C 953.295 554.035 956.11 551.363 964.648 543.61 C 966.401 509.561 959.305 479.747 939.859 451.505 C 913.981 422.721 868.877 402.725 857.788 366.315 C 854.035 353.995 855.911 342.426 852.753 329.099 C 834.903 369.457 869.585 432.029 874.243 474.526 C 879.165 519.432 864.409 562.764 875.687 605.47 C 877.905 613.869 887.322 637.405 882.869 643.845 C 875.891 643.254 872.701 627.356 870.821 622 C 853.605 572.974 870.385 521.675 865.731 471.804 C 863.816 459.695 859.758 447.544 855.462 436.033 C 843.903 405.062 835.764 377.371 838.777 343.624 C 841.019 318.508 866.438 300.617 890.725 300.888 C 899.637 300.987 906.856 313.357 912.972 311.331 C 914.002 307.229 909.383 299.801 907.215 296.126 C 900.81 285.265 894.049 281.988 882.134 283.327 C 860.07 286.683 846.448 303.284 832.816 320.179 C 819.704 336.429 819.303 364.087 811.042 385.99 C 795.289 427.76 777.872 469.129 763.403 511.345 C 758.55 525.505 754.909 541.845 750.749 556.562 C 744.573 578.941 738.034 602.207 740.917 625.635 C 741.989 634.355 744.772 640.484 751.565 645.473 C 771.111 659.829 771.483 646.198 781.655 641.129 C 794.261 634.847 827.105 631.703 840.959 637.542 C 860.801 644.935 865.048 668.565 885.885 659.871 C 894.757 656.169 900.595 649.306 908.579 644.453 C 915.427 640.29 929.78 637.46 933.936 631.111 C 933.91 622.417 917.657 621.54 912.152 618.454 C 902.114 612.827 885.319 581.709 884.058 573.031 C 887.857 567.046 895.988 566.13 902.79 564.543 C 918.749 560.822 930.9 558.808 946.924 563.633 z M 564.642 1174.89 C 568.778 1172.11 572.057 1168.96 577.512 1169.85 C 584.297 1170.6 585.014 1180.63 589.887 1183.32 C 603.477 1190.84 618.047 1196.94 631.74 1204.27 C 642.387 1209.97 651.788 1217.9 662.951 1222.89 C 696.152 1237.62 732.837 1243.48 768.534 1248.84 C 807.832 1254.73 848.036 1260.76 887.82 1261.67 C 922.706 1262.46 957.77 1261.74 992.694 1263.08 C 1002.94 1263.37 1013.75 1262.38 1023.93 1262.58 C 1032.98 1262.77 1042.98 1264.55 1051.94 1265.34 C 1087.05 1268.45 1120.1 1264.25 1153.46 1253.01 C 1157.92 1251.5 1162.92 1250.42 1167.45 1248.74 C 1179.07 1245.71 1202.95 1240.35 1213.08 1236.28 C 1205.81 1195.62 1168.12 1219.12 1140.9 1220.41 C 1091.85 1222.74 1043.04 1226.41 993.96 1222.24 C 977.709 1220.91 960.415 1222.65 944.01 1219.72 C 901.789 1214.68 860.183 1206.23 818.595 1197.64 C 793.29 1192.41 767.46 1190.53 742.66 1182.31 C 731.432 1178.58 720.069 1174.94 708.782 1171.4 C 693.342 1167.06 676.867 1168.29 661.652 1163.01 C 608.771 1140.24 549.317 1115.52 535.879 1052.85 C 535.144 1049.42 532.713 1032.95 531.63 1031.81 C 513.183 1045.64 501.038 1066.28 497.904 1089.12 C 495.913 1103.83 499.526 1111.34 508.065 1122.51 C 526.268 1146.33 538.382 1159.6 564.642 1174.89 z M 690.894 633.507 C 727.589 622.774 723.978 605.599 731.918 573.806 C 745.102 521.016 767.495 471.569 787.769 421.273 C 792.212 410.253 800.589 399.782 804.928 388.604 C 808.119 381.373 813.121 351.45 809.705 344.845 C 805.042 350.692 801.56 357.013 797.547 363.365 C 756.552 428.255 686.728 475.019 658.265 547.821 C 650.303 568.188 658.184 603.087 668.707 620.963 C 675.95 629.519 679.925 630.735 690.894 633.507 z M 1130.11 492.157 C 1139.51 498.865 1156.41 507.689 1162.21 514.434 C 1166.86 519.94 1170.68 526.089 1173.56 532.691 C 1181.86 552.058 1177.71 562.212 1201.23 568.238 C 1220.85 570.204 1235.61 567.498 1250.99 554.271 C 1285.14 524.908 1263.93 475.104 1246.81 442.705 C 1233.94 418.333 1232.21 406.885 1201.38 408.219 C 1183.06 413.523 1174.4 423.929 1161.2 436.684 C 1144.75 452.578 1139.44 471.68 1130.11 492.157 z M 1039.68 395.118 C 1073.93 397.363 1096.63 409.14 1109.19 442.773 L 1112.98 455.606 C 1118.67 451.341 1120.66 450.277 1124.64 444.172 C 1142.27 417.086 1166.08 412.356 1188.69 398.836 C 1189.13 377.233 1186.79 365.59 1179.99 344.931 C 1171.4 318.842 1157.82 304.298 1129.06 302.477 C 1087.26 304.704 1013.75 345.226 1039.68 395.118 z M 621.758 468.158 C 633.653 489.45 637.05 503.146 633.706 527.812 C 632.491 536.776 623.801 550.43 626.105 558.094 C 632.438 564.765 643.34 560.534 646.409 551.73 C 669.537 473.823 745.621 421.525 788.082 354.693 C 801.252 333.963 812.291 317.982 798.136 293.283 C 790.158 279.363 779.766 266.524 763.664 261.889 C 758.91 260.556 753.971 260.005 749.041 260.258 C 747.525 265.257 764.548 299.242 757.865 318.59 C 741.684 365.436 705.76 384.399 671.738 415.651 C 653.95 432.043 637.254 449.583 621.758 468.158 z M 974.33 538.423 C 985.096 529.809 1012.57 523.489 1026.81 522.691 C 1029.9 522.517 1031.63 525.589 1033.07 527.85 C 1037.06 534.945 1038.88 539.262 1041.95 546.874 C 1055.41 527.18 1070.37 527.381 1085.48 513.098 C 1094.51 504.567 1088.16 496.488 1103.6 484.581 C 1105.08 459.107 1098.39 440.578 1081.49 421.381 C 1069.62 407.892 1058.5 405.15 1041.47 406.24 C 1014.06 410.933 998.462 426.331 982.02 448.093 C 973.763 459.024 967.832 475.667 970.883 489.042 C 975.612 509.774 977.804 516.612 974.33 538.423 z M 952.202 566.558 C 955.172 569.613 957.63 571.557 959.078 575.526 L 958.58 577.558 C 952.073 580.269 939.436 570.076 927.526 572.528 L 927.181 573.956 C 936.416 583.691 951.442 583.316 968.57 602.052 C 972.545 579.67 985.93 561.735 1001.37 545.875 L 1006.03 556.575 C 995.69 566.823 983.945 582.25 982.427 597.418 C 980.154 620.126 1033.32 633.665 1037.38 643.437 C 1030 652.351 999.23 632.269 990.375 628.846 C 984.115 626.426 978.359 625.045 971.84 623.459 C 966.075 633.275 955.841 664.098 950.195 669.038 L 948.576 669.47 C 941.701 662.666 961.349 625.32 965.716 616.333 C 964.395 598.877 921.19 590.643 914.982 574.836 C 910.298 574.168 901.427 578.656 896.664 580.706 C 908.074 622.162 933.928 609.254 942.724 621.597 C 944.276 628.29 943.118 630.556 940.675 636.976 C 934.857 652.26 936.139 671.609 937.711 687.514 L 938.886 686.589 C 952.098 676.092 971.212 653.679 985.898 648.521 L 987.531 649.158 C 989.218 656.557 991.224 657.953 997.743 661.776 C 1023.23 676.726 1045.02 673.528 1070.83 662.329 C 1065.73 647.584 1053.97 636.678 1045.33 621.013 C 1033.37 613.181 1001.38 612.033 999.01 604.487 C 1001.99 599.428 1008.07 599.58 1013.43 598.853 C 1018.48 593.699 1029.4 578.865 1031.02 571.836 C 1033.42 561.391 1031.44 545.289 1025.02 536.644 C 1022.43 535.546 1023.73 535.702 1020.97 536.149 C 995.772 542.163 972.916 550.63 952.202 566.558 z M 871.763 707.674 L 873.679 706.979 C 874.936 703.959 874.431 704.494 873.873 700.702 C 869.617 694.795 857.399 685.266 851.228 680.166 C 848.699 683.187 847.186 685.933 843.523 686.668 C 831.273 684.72 821.048 682.163 809.676 676.982 C 802.081 673.707 794.466 668.681 786.546 666.342 C 775.141 662.975 760.46 666.857 749.473 662.065 C 737.834 656.988 729.838 641.242 723.459 630.579 C 710.348 640.588 700.567 648.467 682.855 647.517 C 667.599 646.699 659.522 628.927 653.036 627.401 C 636.237 623.447 618.78 653.967 601.242 629.36 C 595.154 620.819 594.197 613.45 595.804 602.641 C 596.508 597.91 598.884 594.696 597.923 591.027 L 594.419 591.397 C 581.476 593.428 567.642 596.382 554.833 594.235 C 553.109 593.946 553.385 594.138 551.536 594.838 C 549.837 599.628 553.382 606.951 555.35 611.555 C 567.836 640.774 605.085 659.698 633.332 670.471 C 662.799 681.709 701.404 682.545 732.326 684.868 C 755.168 686.506 781.617 691.01 804.688 693.596 C 825.321 695.91 850.686 704.902 871.763 707.674 z M 923.234 295.234 C 929.147 310.402 936.608 326.432 920.134 338.584 C 915.953 341.669 900.337 321.4 896.739 317.919 C 894.799 332.82 895.169 341.885 895.941 356.924 C 928.104 340.976 938.759 336.547 972.361 354.429 C 996.471 368.319 1003.53 378.191 1008.82 405.353 C 1014.63 403.81 1020.91 402.268 1026.63 400.578 C 1021.59 384.583 1019.1 368.983 1026.9 353.619 C 1029.63 348.245 1032.57 341.325 1033 335.226 C 1034.55 313.26 1014.29 284.466 995.236 274.601 C 986.831 270.25 978.348 269.633 969.244 270.095 C 946.887 275.844 939.71 278.423 923.234 295.234 z M 470.727 1077.48 C 476.365 1078.46 478.179 1078.35 483.957 1078.11 C 486.074 1071.56 496.294 1042.75 494.898 1038.09 C 492.52 1037.75 492.958 1037.72 490.558 1037.86 C 479.13 1044.98 450.592 1064.95 470.727 1077.48 z M 711.75 1248.81 C 714.256 1255.71 715.926 1260.43 719.262 1266.92 C 722.563 1268.92 725.86 1271.02 729.317 1272.72 C 741.305 1270.9 743.162 1270.54 753.845 1264.56 C 757.543 1261.99 760.704 1259.83 764.182 1256.93 C 746.912 1253.13 727.377 1252.8 711.75 1248.81 z M 617.863 1214.1 L 622.127 1211.47 L 622.088 1210.13 C 612.367 1201.95 593.151 1194.94 580.898 1191.36 C 578.172 1209.62 583.531 1212.73 599.487 1218.43 C 606.307 1217.26 611.403 1216.64 617.863 1214.1 z M 1123.09 547.983 C 1104.09 544.698 1102.23 544.069 1087.05 532.127 C 1043.07 545.381 1050.31 567.584 1030.5 600.888 C 1039.77 604.068 1050.04 609.334 1059 613.615 C 1061.99 609.55 1061.06 609.412 1064.91 608.233 C 1070.33 609.913 1071.76 613.866 1078.42 617.443 C 1100.54 623.445 1115.95 618.621 1129.06 599.556 C 1141.95 580.802 1136.03 564.526 1123.09 547.983 z M 686.808 1244.81 L 690.553 1243.27 L 690.752 1242.34 C 676.448 1236.97 656.434 1228.42 642.458 1224.07 C 648.677 1253.81 660.332 1254.82 686.808 1244.81 z M 594.821 490.902 C 598.91 488.723 601.53 480.728 600.144 476.452 C 593.413 470.126 571.998 469.261 563.135 469.401 C 559.947 470.911 559.138 471.034 557.065 473.957 C 557.029 475.513 556.648 476.312 557.741 477.107 C 565.18 482.517 585.91 488.186 594.821 490.902 z M 1137.57 1276.03 C 1145.62 1281.77 1162.29 1284.2 1168.74 1275.68 C 1168.82 1273.38 1167.66 1268.72 1167.63 1268.88 C 1168.33 1265.16 1170.73 1259.71 1172.27 1256.34 L 1170.58 1255.81 C 1153.7 1263.11 1145.65 1264.12 1127.65 1268.4 L 1137.57 1276.03 z M 491.638 1142.79 L 501.272 1140.22 C 497.546 1135.13 483.226 1112.34 480.535 1110.47 C 467.577 1128.36 462.762 1144.96 491.638 1142.79 z M 1359.67 452.625 C 1370.21 471.725 1375.13 482.811 1380.86 503.91 C 1392.25 503.66 1401.83 503.65 1413.25 504.064 C 1417.31 504.664 1422.7 505.299 1426.59 506.214 C 1441.63 483.195 1457.71 445.05 1427.8 425.525 C 1421 421.083 1405.42 417.505 1397.08 418.044 C 1380.75 422.429 1365.13 436.576 1359.67 452.625 z M 1361.82 502.867 C 1355.28 473.89 1333.28 435.641 1307.64 419.351 C 1297.87 413.145 1291.29 411.596 1279.86 412.092 C 1269.08 418.348 1257.18 436.352 1260.33 449.245 C 1262.86 459.584 1268.41 469.985 1272.48 480.329 C 1282.51 505.832 1282.49 531.489 1315.71 537.371 C 1325.5 539.104 1329.22 538.917 1338.17 534.362 C 1348.68 524.026 1356.05 516.459 1361.82 502.867 z M 1265.59 639.028 C 1264.55 632.225 1264.9 621.445 1256.96 621.236 C 1252.97 621.839 1246.63 622.302 1244.13 625.632 C 1237.96 633.863 1246.85 641.713 1253.39 645.473 C 1257.8 647.864 1257.2 648.514 1261.07 647.873 C 1263.56 644.885 1264.12 642.7 1265.59 639.028 z M 516.377 1017.7 C 520.307 1018.5 528.814 1013.53 532.759 1011.43 C 533.144 1004.56 534.234 992.744 534.037 986.298 C 518.001 994.995 509.071 998.527 516.377 1017.7 z M 1101.87 1284.01 C 1103.91 1280.39 1105.82 1277.84 1106.13 1273.75 C 1103.17 1272.07 1072.31 1272.52 1065.62 1272.1 C 1078.48 1277.62 1086.72 1298.67 1101.87 1284.01 z M 1401.14 1155.11 C 1418.23 1148.8 1431.48 1140.53 1444.2 1127.39 C 1448.21 1123.25 1453.95 1119.83 1457.87 1115.65 C 1471.96 1100.63 1481.55 1081.53 1491.91 1063.92 C 1498.48 1052.77 1502.81 1036.78 1497.06 1024.58 C 1491.54 1012.84 1484.07 1004.13 1471.02 1002.18 C 1467.65 1002.69 1464.8 1002.58 1462.6 1004.93 C 1459.37 1021.58 1461.01 1043.76 1459.36 1058.15 C 1457.85 1071.3 1433.37 1115.93 1424.04 1124.56 C 1422.12 1124.97 1418.09 1124.82 1419.24 1124.19 C 1402.46 1133.46 1379.33 1149.46 1362.98 1157.43 C 1347 1165.23 1249.3 1190.31 1242.37 1198.82 C 1241.01 1204 1239.95 1217.71 1247.9 1218.27 C 1252.21 1218.57 1259.89 1215.22 1264.13 1213.64 C 1291.42 1207.97 1307.38 1205.73 1332.63 1193.05 C 1354.19 1182.22 1385.63 1175.59 1401.14 1155.11 z M 695.747 1264.31 L 705.063 1266.12 C 703.87 1261.09 702.546 1253.84 700.218 1249.47 L 698.962 1248.9 C 693.994 1251.03 688.714 1252.8 686.358 1257.81 C 687.416 1262.98 690.874 1262.83 695.747 1264.31 z M 1450.52 606.456 C 1445.02 603.226 1439.06 600.139 1433.65 596.996 C 1418.02 587.919 1413.92 579.473 1394.53 580.372 C 1385.49 581.584 1376.99 585.252 1369.09 589.719 C 1365.85 596.477 1362.59 604.234 1354.48 605.674 C 1331.33 609.781 1319.01 601.371 1303.78 627.001 C 1295.92 640.222 1293.89 662.347 1288.33 674.898 C 1304.32 672.749 1320.18 669.783 1335.86 666.01 C 1367.15 656.099 1390.11 641.656 1418.41 625.603 C 1427.81 620.269 1441.88 612.409 1450.52 606.456 z M 1263.09 1230.17 C 1258.73 1230.82 1254.72 1231.2 1251.84 1234.94 C 1248.5 1239.26 1247.04 1247.06 1251.91 1250.69 L 1253.5 1250.25 C 1259.8 1246.75 1269.56 1241.86 1268.08 1233.26 C 1266.5 1231.69 1265.34 1230.37 1263.09 1230.17 z M 1184.15 658.522 C 1193.59 655.958 1226.71 650.47 1223.76 637.616 C 1223.3 637.449 1222.01 636.921 1221.59 636.897 C 1214.12 640.116 1186.94 650.931 1182.22 655.945 L 1182.03 657.763 L 1184.15 658.522 z M 882.698 312.041 C 876.49 314.714 873.533 317.105 870.637 323.421 C 865.362 334.927 864.083 361.762 873.035 371.595 L 874.473 371.507 L 889.189 361.065 C 884.849 349.429 885.718 336.258 887.523 324.176 C 888.066 320.545 890.259 316.436 888.512 313.611 C 886.358 312.941 884.925 312.442 882.698 312.041 z M 496.865 1167.55 L 505.923 1173.35 C 505.956 1169.1 506.732 1157.04 505.036 1154.28 C 499.208 1155.74 494.77 1156.86 489.079 1158.84 C 491.271 1161.3 494.643 1165.35 496.865 1167.55 z M 1437.38 1152.9 C 1430.21 1156.86 1415.53 1164.21 1412.05 1171.23 C 1413.01 1175.49 1415.17 1175.35 1419.24 1176.41 C 1436.45 1177.58 1451.77 1172.98 1438.69 1153.37 L 1437.38 1152.9 z M 1193.21 1251.83 C 1200.11 1259.3 1202.12 1260.14 1211.73 1263.52 C 1219.75 1265.26 1222.8 1264.89 1230.89 1263.43 C 1226.68 1258.2 1222.55 1252.91 1218.49 1247.57 C 1217.75 1247.53 1216.99 1247.34 1216.27 1247.52 C 1207.51 1248.43 1201.86 1249.79 1193.21 1251.83 z M 1001.73 1298.11 C 999.525 1292.63 997.474 1291.03 992.246 1288.25 C 992.001 1293.27 991.244 1292.49 993.462 1295.91 C 996.873 1297.17 998.12 1297.41 1001.73 1298.11 z M 1544.07 1036.75 C 1536.14 1027.95 1530.72 1027.05 1519.37 1024.02 C 1505.96 1029.08 1512.64 1043.08 1509.42 1054.75 C 1507.69 1061.03 1504.15 1067.16 1503.35 1073.5 C 1508.59 1078.96 1517.72 1075.18 1524.38 1073.47 C 1542.55 1064 1542.46 1056.09 1544.07 1036.75 z M 1174.66 1199.23 C 1178.01 1198.04 1180.72 1197.41 1183.39 1195.1 L 1182.84 1194.1 L 1181.52 1193.97 C 1177.99 1194.82 1175.42 1195.09 1172.53 1197.26 L 1172.89 1198.6 L 1174.66 1199.23 z M 547.115 1180.05 L 550.256 1178.34 C 548.362 1170.86 531.863 1164.08 524.707 1161.95 C 516.53 1176.98 526.284 1179.66 538.464 1182.89 L 547.115 1180.05 z M 499.098 1021.13 C 498.798 1017.74 498.694 1007.79 496.175 1005.9 C 490.065 1010.22 477.393 1021.84 474.504 1028.68 L 475.228 1029.91 L 476.971 1029.83 C 485.549 1027.55 491.28 1025.61 499.098 1021.13 z M 448.377 1078.74 C 446.276 1088.57 448.695 1111.85 456.466 1118.81 L 458.01 1115.88 C 461.178 1107.38 462.144 1104.39 463.938 1095.46 C 457.352 1090.47 453.308 1085.38 448.377 1078.74 z M 996.97 413.149 C 996.69 396.985 993.294 384.809 981.256 372.996 C 971.015 362.947 950.339 352.136 935.719 354.455 C 911.225 356.656 898.987 365.636 879.624 380.59 C 905.169 409.728 931.26 420.358 954.936 452.384 C 957.977 456.223 960.707 459.706 963.547 463.727 C 965.788 438.173 979.994 428.743 996.97 413.149 z M 1018.24 1269.21 C 1010.92 1271.07 1007.6 1271.07 1000.07 1271.39 C 1004.7 1282.97 1010.33 1287.69 1019.98 1294.97 C 1027.19 1295.27 1033.68 1295.58 1040.86 1294.53 C 1045.7 1283.73 1047.29 1279.48 1057.25 1272.28 C 1044.78 1271.14 1029.92 1267.96 1018.24 1269.21 z M 1463.15 988.102 C 1471.54 990.307 1476.3 991.514 1484.47 994.75 C 1491.63 997.587 1497.9 1004.89 1501.71 1004.84 L 1502.8 1004.12 C 1509.86 997.455 1511.21 992.583 1514.7 983.709 C 1504.33 967.866 1489.52 962.053 1472.18 955.69 C 1460.38 963.025 1462.69 975.892 1463.15 988.102 z M 1319.28 1213.23 C 1303.05 1217.09 1268.05 1233.63 1298.28 1248.48 C 1317.34 1252.44 1325.57 1239.94 1329.73 1223.18 C 1328.39 1219.68 1327.55 1216.04 1324.55 1214.05 L 1319.28 1213.23 z M 767.391 1256.94 C 774.361 1276.03 793.889 1289.44 814.668 1282.39 C 818.274 1281.16 824.295 1275.93 827.506 1273.35 C 831.76 1270.24 833.576 1269.02 837.282 1265.26 C 815.151 1262.31 788.796 1260.86 767.391 1256.94 z M 946.159 1268.56 C 940.967 1268.58 936.194 1268.16 931.389 1269.91 C 923.76 1279.82 944.982 1304.11 967.486 1293.52 C 978.883 1286.43 981.178 1282.78 986.998 1270.68 C 973.343 1269.6 959.822 1269.58 946.159 1268.56 z M 1525.86 982.654 C 1523.85 988.142 1518.32 999.042 1520.96 1004.59 C 1526.7 1016.68 1566.31 1003.26 1554.42 1057.62 C 1551.48 1071.06 1545.26 1082.04 1534.16 1090.46 C 1533.83 1090.71 1533.5 1090.98 1533.17 1091.23 C 1529.23 1094.1 1522.77 1093.79 1518.02 1094.62 C 1515.17 1114.32 1546.48 1115.27 1509.59 1139.59 C 1482.1 1157.71 1487.6 1157.58 1455.13 1151.19 C 1456.13 1160.83 1455.95 1169.51 1455.91 1179.16 L 1456.63 1180.74 C 1462.94 1179.06 1473.4 1169.52 1479.32 1165.64 C 1508.86 1146.28 1533.54 1137.2 1550.98 1105.11 C 1575.98 1059.11 1588.53 1033.22 1554.65 987.205 C 1537.36 963.736 1524.49 941.054 1489.94 942.303 C 1489.46 943.521 1488.65 944.7 1489.48 945.298 C 1507.14 958.053 1516.63 959.735 1525.86 982.654 z M 848.761 1267.39 C 852.526 1275.11 855.277 1281.18 860.318 1288.14 C 876.408 1293.54 892.196 1290.63 907.278 1283.08 C 911.367 1279.91 916.596 1276.47 918.005 1271.47 L 917.396 1270.26 C 898.735 1268.34 867.789 1267.39 848.761 1267.39 z M 1394.92 1178.88 C 1382.12 1184.27 1327.83 1205.02 1363.61 1219.61 C 1375.83 1215.6 1411.72 1208.83 1402.78 1191.7 C 1401.06 1188.4 1398.19 1180.66 1394.92 1178.88 z M 1488.58 1093.44 C 1484.22 1099.74 1461.02 1131.13 1460.39 1136.37 C 1464.67 1141.39 1475.19 1141.25 1481.3 1141.01 C 1495.48 1137.41 1503.27 1130.49 1510.45 1118.02 C 1505.74 1107.86 1498.13 1099.3 1488.58 1093.44 z M 1211.29 946.404 C 1210.72 953.194 1213.29 963.382 1214.57 970.403 C 1218.27 990.64 1223.44 1010.67 1221.94 1031.43 C 1221 1044.48 1209.04 1074.09 1218.03 1084.73 C 1223.2 1086.03 1225.01 1084.2 1228.46 1080.4 C 1231.6 1075.21 1238.01 1064.15 1238.43 1058.51 C 1240.19 1034.49 1232.18 959.728 1211.29 946.404 z"/>
<path transform="translate(0,0)" fill="rgb(122,176,146)" d="M 595.544 1027.78 C 606.865 1026.85 611.748 1030.74 618.847 1038.6 C 616.333 1040.95 613.186 1043.43 610.506 1045.66 C 602.883 1054.22 585.445 1042.38 595.544 1027.78 z"/>
<path transform="translate(0,0)" fill="rgb(122,176,146)" d="M 1368.97 711.91 C 1376.35 711.478 1381.72 714.644 1386.26 720.501 C 1389.74 725.046 1391.31 730.771 1390.63 736.455 C 1389.8 743.201 1385.45 745.833 1380.36 749.537 C 1362.97 756.817 1350.01 727.224 1368.97 711.91 z"/>
<path transform="translate(0,0)" fill="rgb(142,172,156)" d="M 1325.08 994.552 L 1326.35 995.994 C 1328.64 1008.32 1335.47 1109.98 1333.17 1119.36 L 1330.37 1120.89 C 1324.07 1108.5 1326.1 1069.68 1324.52 1053.55 C 1322.96 1037.61 1322.64 1018.27 1322.19 1002.09 C 1322.1 998.838 1323.14 997.009 1325.08 994.552 z"/>
<path transform="translate(0,0)" fill="rgb(142,172,156)" d="M 1341.34 1042.99 C 1340.32 1018.78 1335.28 976.577 1337.93 952.929 L 1339.36 952.623 L 1339.24 952.202 C 1344.09 965.271 1346.44 1021.38 1345.16 1035.96 L 1343.26 1042.37 L 1341.34 1042.99 z"/>
<path transform="translate(0,0)" fill="rgb(142,172,156)" d="M 1342.83 1070.19 C 1343.54 1064.51 1342.66 1063.79 1345.97 1060.53 C 1346.49 1067.21 1348.51 1087.02 1345.26 1092.83 C 1341.99 1086.79 1342.74 1077.06 1342.83 1070.19 z"/>
<path transform="translate(0,0)" fill="rgb(122,176,146)" d="M 1345.16 1035.96 C 1346.05 1043.34 1346.42 1053.13 1345.97 1060.53 C 1342.66 1063.79 1343.54 1064.51 1342.83 1070.19 C 1341.68 1061.41 1342.46 1052.4 1341.34 1042.99 L 1343.26 1042.37 L 1345.16 1035.96 z"/>
<path transform="translate(0,0)" fill="rgb(122,176,146)" d="M 1190.42 431.764 C 1196.87 432.152 1210.96 441.661 1213.26 447.423 C 1212.19 450.36 1212.05 449.584 1208.26 451.455 C 1200.8 452.299 1195.57 452.83 1189.34 447.991 C 1183 443.067 1185.68 436.28 1190.42 431.764 z"/>
<path transform="translate(0,0)" fill="rgb(122,176,146)" d="M 1097.76 312.673 C 1101.47 314.63 1111.53 322.093 1115.46 324.865 C 1120.3 319.722 1125.61 315.541 1132.92 321.11 C 1135.18 322.832 1137.6 325.192 1137.96 328.121 L 1136.38 329.424 C 1133.07 329.595 1132.6 329.425 1129.47 330.677 C 1127.12 333.994 1127.38 332.334 1127.27 335.718 L 1128.82 336.484 C 1132.71 335.729 1136.5 331.973 1139.74 329.343 C 1144.14 330.759 1145.36 330.912 1149.03 333.524 C 1150.7 336.88 1150.51 335.188 1149.71 338.759 C 1146.87 342.485 1143.91 343.88 1139.93 346.366 L 1129.69 349.768 C 1128.91 354.617 1128.95 357.602 1125.47 360.61 L 1122.94 360.248 C 1118.53 356.878 1115.34 351.356 1112.12 346.654 C 1108.46 349.501 1107.21 351.989 1102.63 353.427 L 1100.7 351.739 C 1100.52 347.752 1102.55 341.466 1103.85 337.746 C 1098.03 333.865 1089.16 329.928 1089.46 322.302 C 1091.06 317.985 1094.24 315.841 1097.76 312.673 z"/>
<path transform="translate(0,0)" fill="url(#Gradient1)" d="M 637.133 545.285 L 639.125 546.414 C 637.796 549.997 636.702 551.678 636.375 555.575 L 636.244 557.348 L 634.055 557.362 C 633.787 553.631 634.775 548.414 637.133 545.285 z"/>
<path transform="translate(0,0)" fill="rgb(122,176,146)" d="M 1025.93 422.728 C 1038.94 424.1 1040.28 425.181 1049.58 433.776 C 1055.3 433.939 1061.62 433.795 1067.39 433.783 C 1064.07 442.029 1059.65 450.901 1055.81 458.994 C 1048.48 461.529 1034.44 461.153 1028.74 455.372 C 1027.87 450.837 1029.99 448.379 1032.38 443.732 C 1028.29 433.597 1020.31 439.55 1025.93 422.728 z"/>
<path transform="translate(0,0)" fill="rgb(122,176,146)" d="M 974.969 292.511 C 982.26 294.747 982.891 296.402 987.629 302.26 L 989.154 301.849 C 994.115 300.523 997.531 298.803 1001.67 301.191 C 1002.77 304.252 1001.5 306.556 1000.45 309.798 C 1006.01 313.894 1013.29 315.773 1015.47 320.873 C 1013.94 323.749 1013.76 323.106 1010.26 324.983 C 1003.91 325.04 997.362 325.091 991.039 324.893 C 979.42 324.529 981.148 320.309 975.586 315.719 C 969.873 316.4 969.778 317.219 966.31 314.514 C 963.499 307.565 969.324 296.873 974.969 292.511 z"/>
<path transform="translate(0,0)" fill="rgb(122,176,146)" d="M 1292.7 439.642 C 1296.67 439.671 1305.55 442.01 1308.82 443.823 C 1314.64 447.075 1318.99 452.439 1320.96 458.807 C 1324.45 470.024 1316.69 472.503 1307.75 473.261 C 1306.43 475.828 1305.23 477.958 1303.76 480.446 L 1301.54 480.966 C 1297.9 478.377 1297.88 474.802 1294.03 470.452 C 1285.46 468.344 1289.06 463.67 1288.99 455.931 C 1288.93 449.306 1288.34 444.984 1292.7 439.642 z"/>
<path transform="translate(0,0)" fill="rgb(122,176,146)" d="M 944.085 366.564 C 954.202 371.932 953.768 368.975 964.594 371.76 C 967.89 372.608 967.318 373.079 968.656 375.939 C 967.883 383.236 960.776 382.492 956.779 386.684 C 951.038 392.703 959.408 401.181 953.811 407.542 C 948.954 408.851 944.904 406.294 940.504 404.131 C 936.509 401.118 935.876 400.491 932.806 396.538 C 927.974 398.406 924.098 401.052 919.497 400.089 C 916.692 398.036 917.726 399.407 916.915 395.416 C 918.132 389.957 922.249 390.838 923.776 385.043 C 922.69 381.829 922.266 380.392 921.547 377.09 C 925.58 367.598 932.057 375.256 938.1 373.128 C 940.181 369.515 940.764 369.275 944.085 366.564 z"/>
<path transform="translate(0,0)" fill="rgb(122,176,146)" d="M 1423.01 439.984 C 1425.07 441.642 1427.53 444.001 1429.54 445.823 C 1429.92 452.209 1433.59 472.078 1429.1 476.043 C 1426.27 474.989 1424.63 474.397 1421.67 473.599 C 1417.77 476.788 1417.54 477.275 1412.77 478.017 C 1409 472.519 1411.05 469.025 1412.55 462.987 C 1410.77 461.916 1409 460.807 1407.26 459.661 C 1403.94 457.451 1402.1 455.79 1401.28 451.813 C 1404.48 444.738 1415.42 445.616 1423.01 439.984 z"/>
<path transform="translate(0,0)" fill="rgb(142,172,156)" d="M 1380.59 1132.72 C 1381.73 1122.32 1379.72 1103.74 1380.64 1095.11 C 1384.4 1059.77 1363.21 903.752 1378.07 880.956 C 1380.92 887.828 1379.42 950.315 1379.81 962.795 L 1386.15 1127.15 L 1396.17 1123.47 C 1392.59 1128.22 1386.41 1129.34 1380.59 1132.72 z"/>
<path transform="translate(0,0)" fill="rgb(142,172,156)" d="M 1370.12 1137.27 C 1370.61 1100.12 1348.32 956.919 1360.1 934.942 L 1361.42 934.991 C 1363.85 939.008 1363.3 976.309 1363.37 983.881 C 1363.84 1034.1 1374.91 1085.02 1375.23 1134.92 L 1370.12 1137.27 z"/>
<path transform="translate(0,0)" fill="rgb(142,172,156)" d="M 1402.05 1009.53 C 1402.05 1000.85 1400.11 952.415 1403.88 948.755 C 1413.68 950.706 1408.22 972.404 1407.06 980.309 C 1406.69 1012.74 1407.65 1044.4 1408.17 1076.82 C 1408.27 1083.02 1408.45 1092.67 1407.7 1098.7 C 1406.47 1097.4 1406.97 1097.46 1406.6 1094.98 L 1405.23 1094.1 C 1401 1072.27 1402.03 1033.23 1402.05 1009.53 z"/>
<path transform="translate(0,0)" fill="rgb(122,176,146)" d="M 1402.05 1009.53 C 1402.05 1000.85 1400.11 952.415 1403.88 948.755 C 1413.68 950.706 1408.22 972.404 1407.06 980.309 C 1403.18 989.727 1405.05 1011.42 1403.21 1014.46 L 1402.05 1009.53 z"/>
<path transform="translate(0,0)" fill="rgb(142,172,156)" d="M 1405.23 1094.1 L 1406.6 1094.98 C 1406.97 1097.46 1406.47 1097.4 1407.7 1098.7 C 1408.35 1104.76 1408.9 1110.2 1409.24 1116.29 C 1408.03 1116.78 1407.52 1117.16 1406.34 1117.19 C 1404.52 1109.98 1404.73 1101.49 1405.23 1094.1 z"/>
<path transform="translate(0,0)" fill="rgb(240,253,246)" fill-opacity="0.0235294" d="M 1181.52 1193.97 L 1182.84 1194.1 L 1183.39 1195.1 C 1180.72 1197.41 1178.01 1198.04 1174.66 1199.23 L 1172.89 1198.6 L 1172.53 1197.26 C 1175.42 1195.09 1177.99 1194.82 1181.52 1193.97 z"/>
<path transform="translate(0,0)" fill="rgb(122,176,146)" d="M 770.248 1461.97 C 776.753 1453.15 788.939 1440.66 796.695 1432.92 C 832.859 1396.8 910.242 1319.77 964.932 1333.78 C 995.791 1359.71 962.414 1450.75 948.492 1482.5 C 946.565 1488.39 944.937 1494.07 943.186 1499.88 C 943.919 1497.59 950.47 1486.77 952.051 1483.84 C 970.796 1455.77 1032.22 1356.86 1083.07 1382.62 C 1089.94 1386.1 1094.12 1402.08 1094.54 1409.34 C 1097.76 1449.38 1073.84 1512.59 1058.79 1549.92 C 1056.54 1556.92 1045.85 1580.65 1045.23 1585.41 C 1048.55 1582.1 1061.2 1559.75 1064.88 1553.91 C 1083.05 1525.08 1101.27 1502.35 1126.36 1479.35 C 1140.26 1469.41 1157.69 1457.36 1175.74 1459.84 C 1195.44 1462.55 1199.94 1485.26 1199.04 1501.81 C 1196.31 1551.95 1176.34 1600.9 1159.18 1647.54 C 1144.61 1686.54 1130.43 1725.68 1116.63 1764.96 C 1108.21 1788.55 1100.27 1812.46 1093.76 1836.65 C 1091.18 1846.24 1085.39 1865.89 1096.39 1871.88 C 1110.6 1873.7 1130.2 1849.72 1138.42 1839.83 C 1140.96 1835.87 1150.46 1841.42 1149.3 1844.68 C 1146.56 1852.45 1140.17 1859.12 1134.55 1864.87 C 1094.31 1906.11 1050.46 1890.59 1061.21 1829.25 C 1067.37 1794.13 1079.26 1764.55 1091.42 1730.92 L 1146.89 1581.65 C 1154.37 1561.18 1161.56 1539.99 1167.13 1518.92 C 1170.15 1507.49 1179.12 1480.17 1167.55 1472.17 C 1158.06 1470.42 1137.7 1485.28 1130.64 1491.69 C 1112.93 1507.77 1097.59 1527.03 1084.21 1546.81 C 1058.84 1584.23 1036.8 1623.81 1018.36 1665.09 C 999.561 1707.75 977.521 1773.11 962.204 1817.95 L 926.013 1816.91 C 943.649 1762.34 963.368 1711.51 983.41 1657.92 L 1020.58 1555.91 C 1029.54 1531.93 1038.29 1507.88 1046.84 1483.75 C 1060.62 1445.54 1099.12 1340.16 1018.46 1416.89 C 980.044 1453.43 940.831 1525.48 916.956 1573.23 C 896.344 1614.46 883.079 1665.38 865.096 1708.16 C 851.355 1743.99 836.732 1780.68 825.172 1817.12 L 787.624 1816.98 C 792.551 1800.4 799.13 1786.4 805.358 1770.43 C 812.846 1751.24 820.046 1731.7 827.281 1712.4 L 907.544 1496.24 C 922.994 1454.9 938.829 1413.16 950.399 1370.54 C 956.328 1348.7 950.375 1337.07 927.098 1348.28 C 861.458 1379.91 819.048 1445.86 776.103 1501.94 C 774.432 1491.89 770.508 1471.27 770.248 1461.97 z"/>
<path transform="translate(0,0)" fill="rgb(122,176,146)" d="M 310.857 1585.67 C 313.572 1586.36 313.406 1586.25 315.21 1588.39 C 315.381 1595.11 300.418 1606.9 294.502 1614.9 C 260.71 1660.55 231.183 1724.86 232.609 1782.44 C 232.63 1787.92 238.912 1799.58 243.74 1801.96 C 267.075 1813.47 301.282 1760.1 309.995 1746.03 C 303.404 1739.26 296.669 1732.24 292.834 1723.01 C 277.148 1685.23 290.769 1619.78 330.071 1601.06 C 346.671 1593.15 363.321 1600.03 369.868 1617.9 C 385.192 1659.74 370.381 1701.8 353.204 1740.43 C 356.871 1737.6 360.401 1735.37 364.266 1732.85 C 373.076 1679.36 404.701 1624.33 453.494 1598.45 C 458.809 1595.64 472.56 1586.21 478.123 1589.78 C 473.752 1596.83 467.38 1602.77 462.021 1609.16 C 430.272 1647.01 407.72 1695.5 397.621 1743.67 C 394.748 1757.38 390.129 1794.07 405.397 1801.7 C 429.87 1813.93 462.618 1762.18 471.653 1745.74 C 464.354 1739.29 457.96 1732.94 454.099 1723.52 C 438.108 1684.5 453.397 1620.14 493.671 1601.16 C 511.012 1592.99 527.282 1603.56 532.754 1621.13 C 545.037 1660.59 531.45 1703.44 514.465 1739.46 C 532.379 1732.33 545.042 1714.72 556.868 1700.42 C 559.364 1697.4 560.719 1695.9 564.095 1695.66 C 566.871 1697.96 566.773 1697.72 568.042 1701.07 C 566.994 1709.62 543.752 1732.63 536.172 1739.09 C 526.5 1745.66 520.071 1750.17 508.026 1751.16 C 490.583 1781.4 457.796 1816.71 420.573 1818.61 C 378.097 1820.79 364.03 1782 363.987 1746.83 C 358.634 1748.57 350.992 1750.13 345.315 1751.45 C 326.172 1782.43 300.997 1815.35 261.759 1818.21 C 221.169 1821.16 204.776 1791.86 202.958 1756.74 C 178.415 1789.49 134.312 1832.3 89.4145 1813.15 C 47.7042 1795.36 59.0736 1731.47 73.2326 1698.92 C 79.8469 1683.95 88.2232 1669.83 98.184 1656.84 C 116.818 1633.01 151.266 1604.39 179.198 1592.39 C 197.887 1584.35 220.626 1584 228.389 1607.07 C 231.828 1617.28 231.07 1628.44 226.281 1638.09 C 217.129 1656.45 197.904 1662.64 180.029 1668.45 C 186.686 1653.39 207.682 1624.34 200.744 1605.67 C 198.069 1598.47 183.88 1603.84 179.104 1607.31 C 138.446 1636.86 72.387 1753.51 102.437 1800.42 C 142.337 1809.1 162.895 1783.6 188.343 1757.33 C 193.29 1752.22 198.595 1746.35 202.925 1740.72 C 203.903 1729.32 204.624 1721.72 207.484 1710.47 C 218.311 1669.33 242.609 1633 276.499 1607.29 C 287.022 1599.37 299.458 1592.39 310.857 1585.67 z M 474.1 1733.06 L 478.437 1733.72 C 490.991 1720.34 513.08 1650.12 512.769 1629.47 C 512.633 1620.5 510.819 1613.9 500.944 1611.96 C 460.696 1624.78 444.905 1703.91 474.1 1733.06 z M 314.114 1733.49 C 321.028 1730.87 374.347 1613.88 337.443 1611.98 C 299.35 1628.63 282.288 1708.02 314.114 1733.49 z"/>
<path transform="translate(0,0)" fill="rgb(122,176,146)" d="M 1713.34 1550.13 C 1746.05 1548.28 1727.83 1585.58 1718.9 1600.63 C 1735.46 1602.25 1770.35 1593.18 1763.31 1622.36 C 1752.86 1665.72 1734.02 1708.43 1719.64 1750.78 C 1716.82 1759.06 1711.06 1770.8 1712.84 1779.48 C 1718.54 1785.43 1729.3 1773.47 1733.53 1769.28 C 1744.78 1710.28 1790.05 1646.39 1838.54 1611.76 C 1851.11 1602.79 1882.39 1584.76 1897.87 1587.2 C 1899.4 1589.75 1898.83 1588.36 1898.45 1592.06 C 1892.09 1597.22 1880.74 1600.88 1873.43 1605.83 C 1830.73 1634.74 1791.72 1696.84 1778.37 1746.02 C 1776.5 1752.93 1774.7 1769.81 1778.32 1775.55 C 1779.73 1776.36 1780.49 1777.18 1782.19 1777 C 1803.37 1774.76 1893.29 1620.59 1913.29 1598.27 C 1918.06 1592.95 1923.02 1588.26 1930.54 1588.14 C 1933.57 1588.09 1936.99 1589.34 1938.94 1591.76 C 1942.18 1595.81 1942.02 1602.5 1941.35 1607.32 C 1939.11 1623.48 1931.32 1640.6 1925.81 1656 C 1916.36 1682.49 1906.74 1708.93 1896.96 1735.3 C 1894.08 1743 1880.46 1773.91 1885.21 1779.79 C 1898.83 1781.26 1906.57 1766.18 1913.87 1756.3 C 1923.35 1742.36 1933.93 1728.3 1943.88 1714.66 C 1948.06 1708.93 1955.7 1692.45 1962.55 1692.96 C 1965.51 1695.22 1965.87 1695.15 1967.32 1698.66 C 1965.66 1706.34 1938.12 1740.44 1932.46 1749.65 C 1925.12 1761.59 1912.92 1776.95 1904.55 1788.74 C 1899.15 1795.96 1893.97 1801.67 1887.2 1807.49 C 1865.13 1826.43 1834.71 1818.98 1843.9 1785.4 C 1855.33 1743.65 1879.28 1700.69 1887.31 1658.13 L 1887.6 1656.56 L 1887.04 1657.14 C 1880.55 1664.17 1877 1670.11 1871.94 1678.21 C 1847.58 1717.21 1825.6 1757.07 1795.78 1792.39 C 1786.11 1803.84 1763.03 1826.29 1746.02 1816.04 C 1737.32 1810.81 1735.13 1797.84 1733.6 1788.46 C 1727.54 1795.87 1722.32 1802.91 1714.71 1808.73 C 1692.57 1825.62 1667.08 1821.06 1673.25 1788.39 C 1676.36 1771.96 1682.76 1757.48 1688.64 1741.86 C 1698.74 1715.11 1708.62 1688.28 1718.29 1661.37 C 1722.45 1649.71 1729.76 1630.47 1732.09 1619.03 L 1732.37 1617.62 C 1725.44 1616.14 1718.59 1615.26 1711.61 1613.74 C 1701.08 1638.76 1669.7 1679.76 1653.85 1703.33 C 1651.19 1707.29 1649.53 1709.01 1644.77 1709.75 C 1641.28 1708.56 1642.47 1709.65 1640.84 1706.68 C 1640.92 1705.76 1640.95 1704.42 1641.49 1703.65 C 1662.51 1673.12 1683.36 1642.61 1703 1611.16 C 1697.16 1606.45 1693.24 1603.09 1690.8 1595.75 C 1684.78 1577.68 1695.2 1555.91 1713.34 1550.13 z"/>
<path transform="translate(0,0)" fill="rgb(122,176,146)" d="M 670.389 1427.26 C 681.66 1427.07 693.009 1427.89 704.288 1427.06 C 699.255 1446 686.646 1478.25 679.534 1497.94 L 623.729 1649.42 C 617.868 1665.39 591.541 1732.93 592.683 1745.68 C 603.064 1747.03 672.967 1589.34 698.528 1587.61 C 704.535 1587.21 709.248 1584.01 717.977 1588.97 C 725.844 1593.43 730.433 1600.63 732.486 1608.97 C 734.202 1615.94 733.955 1622.81 733.192 1629.74 C 728.268 1674.49 676.459 1687.18 656.27 1724.3 C 648.346 1738.87 644.586 1754.57 648.811 1771.25 C 650.292 1777.09 654.681 1783.46 660.021 1785.92 C 697.352 1803.1 734.361 1700.71 757.693 1694.02 C 761.347 1694.99 759.745 1694.06 762.334 1697.41 C 762.781 1702.42 709.004 1774.15 702.441 1784.65 C 689.445 1805.44 664.804 1825.87 638.313 1813.38 C 630.633 1807.92 625.841 1802.47 623.254 1793.02 C 614.62 1761.44 627.48 1734.4 648.082 1710.91 C 661.909 1695.26 679.037 1681.17 688.996 1662.57 C 694.452 1652.38 707.941 1621.53 693.901 1614.05 C 680.697 1613.68 665.005 1651.61 658.164 1662.24 C 629.707 1706.42 605.591 1753.21 577.677 1797.63 C 571.994 1806.67 558.77 1820.26 547.071 1817.64 C 537.074 1815.41 537.125 1801.6 538.739 1793.68 C 552.166 1744.42 573.638 1697.6 589.052 1648.83 C 592.538 1637.8 599.11 1625.02 603.146 1613.6 L 602.407 1613.2 C 594.475 1627.85 545.944 1709.9 532.564 1707.97 L 532.003 1706.4 C 534.842 1696.59 544.648 1685.1 550.606 1676.33 C 562.919 1660.46 572.37 1640.85 583.247 1624.55 C 612.91 1580.1 631.185 1532.33 649.502 1482.51 C 654.994 1467.56 663.081 1440.76 670.389 1427.26 z"/>
<path transform="translate(0,0)" fill="rgb(122,176,146)" d="M 1410.23 1752.11 C 1413.81 1747.47 1417.44 1741.92 1420.44 1736.88 C 1438.56 1706.44 1457.04 1676.3 1475.66 1646.17 C 1485.58 1630.13 1492.72 1614.7 1505.03 1599.94 C 1519.27 1578.93 1559.27 1581.93 1551.44 1613.2 C 1538.85 1663.51 1516.03 1713.04 1500.3 1762.66 C 1499 1766.75 1496.09 1775.73 1498.02 1779.38 C 1519.82 1784.89 1562.12 1695.71 1576.33 1692.89 C 1580.4 1694.79 1578.94 1693.4 1581.22 1696.76 C 1579.32 1699.45 1576.75 1703.35 1574.71 1705.79 C 1556.75 1733.97 1536.28 1761.31 1517.27 1788.66 C 1489.82 1828.17 1439.05 1832.01 1461.05 1771.45 C 1463.61 1764.39 1466.29 1756.49 1468.9 1749.29 L 1497.18 1672.12 C 1502.34 1658.38 1508.28 1644.71 1512.38 1630.66 C 1513.75 1625.98 1513.9 1620.86 1508.63 1619.17 C 1501.77 1621.65 1486.69 1648.69 1481.86 1656.57 C 1465.56 1683.73 1449.49 1711.04 1433.67 1738.48 C 1424.61 1754.48 1399.43 1803.2 1387.2 1810.6 C 1334.3 1842.66 1371.06 1758.27 1375.39 1746.34 C 1384.97 1719.68 1394.74 1693.07 1404.68 1666.54 C 1407.28 1659.56 1418.82 1632.94 1414.79 1627.97 C 1407.05 1630.78 1364.11 1702.36 1354.77 1707.23 C 1351.02 1706.94 1352.64 1707.62 1349.78 1705.04 C 1349.1 1701.35 1350.96 1698.53 1353.15 1695.48 C 1371.39 1670.07 1389 1644.67 1405.72 1618.23 C 1414.98 1603.6 1425.7 1590.76 1443.19 1586.73 C 1446.73 1587.72 1450.27 1589.12 1453.73 1590.41 C 1462.18 1610.06 1452.25 1630.16 1445.45 1649.1 L 1423.78 1709.56 C 1419.24 1722.29 1412.51 1739.17 1410.23 1752.11 z"/>
<path transform="translate(0,0)" fill="rgb(122,176,146)" d="M 1309.14 1587.19 C 1313.93 1586.38 1314.7 1586.72 1318.46 1589.01 L 1318.84 1590.67 C 1315.33 1594.29 1291.74 1604.13 1280.64 1613.92 C 1242.95 1647.16 1199.3 1710.55 1194.67 1761.27 C 1194.22 1766.19 1193.7 1773.18 1196.9 1776.83 C 1220.21 1781.81 1310.76 1621.63 1331.65 1598.41 C 1335.37 1594.27 1339.73 1590.81 1345.1 1589.11 C 1348.82 1587.93 1352.8 1587.78 1356.21 1589.9 C 1361.21 1593 1360.33 1601.19 1359.65 1606.13 C 1355.66 1634.99 1298.7 1764.99 1303.23 1778.95 C 1303.78 1780.67 1304.5 1780.59 1305.98 1781.36 C 1320.51 1779.24 1361.04 1717.06 1370.64 1702.78 C 1373.82 1698.05 1376.04 1693.3 1382.33 1692.87 L 1383.59 1694.43 C 1384.55 1702.14 1381.15 1704.99 1376.5 1711.41 C 1361.86 1735.95 1343.52 1759.34 1327.39 1782.96 C 1323.98 1787.95 1320.06 1793.19 1316.08 1797.71 C 1311.77 1802.6 1306.85 1806.92 1301.44 1810.57 C 1281.01 1824.25 1257.61 1817.52 1261.42 1790.63 C 1263.97 1772.69 1276.89 1744.88 1283.36 1727.21 C 1292.14 1703.23 1299.94 1678.91 1306.72 1654.3 C 1278.4 1690.69 1224.75 1799.82 1185.97 1815.72 C 1179.98 1818.18 1171.39 1818.79 1165.43 1815.91 C 1159.19 1812.9 1155.49 1806.17 1153.54 1799.79 C 1145.32 1772.93 1159.65 1735.21 1171.93 1711.72 C 1201.88 1654.42 1246.22 1606.89 1309.14 1587.19 z"/>
<path transform="translate(0,0)" fill="rgb(122,176,146)" d="M 1670.36 1456.7 C 1681.88 1456.3 1692.67 1456.64 1704.17 1456.94 C 1696.97 1476.99 1689.64 1497 1682.19 1516.96 L 1760.75 1517 C 1759.24 1521.08 1757.56 1526.03 1755.91 1529.97 L 1677.82 1530.13 C 1670.83 1549.88 1662.95 1569.32 1655.74 1588.98 C 1646.64 1613.79 1638.01 1638.68 1628.54 1663.36 C 1620.39 1684.63 1612.51 1706 1604.93 1727.47 C 1601.24 1737.76 1586.93 1773.87 1589.73 1782.68 C 1606.31 1798.68 1664.01 1704.76 1674.43 1691.4 C 1676.83 1693.46 1680.79 1696.65 1682.8 1698.9 C 1674.49 1705.91 1669.82 1714.21 1663.77 1723.11 L 1638.11 1760.86 C 1622.56 1783.49 1585.59 1841.01 1553.86 1808.33 C 1546.51 1800.76 1550.75 1781.98 1554 1772.88 C 1561.78 1751.09 1570.07 1729.42 1578.31 1707.79 L 1582.3 1697.02 C 1590.22 1676.58 1597.32 1655.43 1605.15 1634.84 C 1607.15 1628.24 1611.19 1618.94 1613.83 1612.32 C 1610.01 1617.34 1603.82 1628.33 1600.45 1633.96 C 1592.7 1646.53 1555.63 1707.82 1546.15 1710.06 C 1545.86 1710.13 1545.56 1710.11 1545.26 1710.14 C 1541.89 1707.13 1543.24 1699.8 1545.62 1696.66 C 1582.95 1647.32 1618.11 1585.84 1642.47 1529.51 C 1620.31 1529.13 1598.15 1528.98 1575.99 1529.06 C 1577.31 1525.38 1578.94 1520.36 1580.63 1516.96 C 1601.92 1516.85 1627.24 1517.31 1648.17 1516.43 C 1652.25 1504.57 1664.86 1465.65 1670.36 1456.7 z"/>
<path transform="translate(0,0)" fill="rgb(240,253,246)" fill-opacity="0.0117647" d="M 1058.79 1549.92 C 1061.09 1550.08 1060.89 1550.68 1063.64 1550.41 C 1066.7 1547.02 1068.74 1538.93 1070.11 1537.88 C 1076.38 1533.09 1075.39 1533.79 1078.02 1526.93 C 1079.84 1525.46 1084.58 1518.12 1086.47 1515.79 C 1095.67 1504.49 1110.53 1483.11 1123.98 1477.67 L 1126.36 1479.35 C 1101.27 1502.35 1083.05 1525.08 1064.88 1553.91 C 1061.2 1559.75 1048.55 1582.1 1045.23 1585.41 C 1045.85 1580.65 1056.54 1556.92 1058.79 1549.92 z"/>
<path transform="translate(0,0)" fill="rgb(240,253,246)" fill-opacity="0.0470588" d="M 1600.45 1633.96 C 1603.82 1628.33 1610.01 1617.34 1613.83 1612.32 C 1611.19 1618.94 1607.15 1628.24 1605.15 1634.84 L 1602.52 1635.61 L 1600.45 1633.96 z"/>
<path transform="translate(0,0)" fill="rgb(240,253,246)" fill-opacity="0.0352941" d="M 948.492 1482.5 L 952.051 1483.84 C 950.47 1486.77 943.919 1497.59 943.186 1499.88 C 944.937 1494.07 946.565 1488.39 948.492 1482.5 z"/>
<path transform="translate(0,0)" fill="rgb(240,253,246)" fill-opacity="0.0509804" d="M 1581.22 1696.76 L 1582.3 1697.02 L 1578.31 1707.79 L 1574.71 1705.79 C 1576.75 1703.35 1579.32 1699.45 1581.22 1696.76 z"/>
</svg>